{"title":"Dracula Dead and Loving It(1995)MPEG-4[DaScubaDude]","uid":14662173,"size":895520803,"categoryP":"video","categoryS":"movies","magnet":"?xt=urn:btih:18f8613767106a80e61313fa6450b5cd14b2709d&amp;dn=Dracula+Dead+and+Loving+It%281995%29MPEG-4%5BDaScubaDude%5D&amp;tr=udp%3A%2F%2Ftracker.leechers-paradise.org%3A6969&amp;tr=udp%3A%2F%2Fzer0day.ch%3A1337&amp;tr=udp%3A%2F%2Fopen.demonii.com%3A1337&amp;tr=udp%3A%2F%2Ftracker.coppersurfer.tk%3A6969&amp;tr=udp%3A%2F%2Fexodus.desync.com%3A6969","seeders":3,"leechers":0,"uploader":"dascuba","files":1,"time":1463772225,"description":"Dracula: Dead and Loving It (1995)\r\nPG-13 | 1h 28min | Comedy, Fantasy, Horror | 22 December 1995 (USA)\r\nMel Brooks' parody of the classic vampire story and its famous film adaptations.\r\nDirector: Mel Brooks\r\nWriters: Mel Brooks (screenplay), Rudy De Luca (screenplay) | 4 more credits »\r\nStars: Leslie Nielsen, Mel Brooks, Peter MacNicol \r\n\r\nGeneral\r\nComplete name                            : DraculaD&amp;LIDRACULA_DEAD_AND_LOVING_IT_Title1.mp4\r\nFormat                                   : MPEG-4\r\nFormat profile                           : Base Media\r\nCodec ID                                 : isom (isom/iso2/avc1/mp41)\r\nFile size                                : 854 MiB\r\nDuration                                 : 1h 29mn\r\nOverall bit rate                         : 1 330 Kbps\r\nMovie name                               : DRACULA_DEAD_AND_LOVING_IT\r\nGenre                                    : Comedy\r\nWriting application                      : Lavf54.6.100\r\n\r\nVideo\r\nID                                       : 1\r\nFormat                                   : AVC\r\nFormat/Info                              : Advanced Video Codec\r\nFormat profile                           :   \r\nFormat settings, CABAC                   : No\r\nFormat settings, ReFrames                : 6 frames\r\nCodec ID                                 : avc1\r\nCodec ID/Info                            : Advanced Video Coding\r\nDuration                                 : 1h 29mn\r\nBit rate                                 : 1 195 Kbps\r\nWidth                                    : 720 pixels\r\nHeight                                   : 404 pixels\r\nDisplay aspect ratio                     : 16:9\r\nFrame rate mode                          : Constant\r\nFrame rate                               : 29.970 (30000/1001) fps\r\nColor space                              : YUV\r\nChroma subsampling                       : 4:2:0\r\nBit depth                                : 8 bits\r\nScan type                                : Progressive\r\nBits/(Pixel*Frame)                       : 0.137\r\nStream size                              : 767 MiB (90%)\r\n\r\nAudio\r\nID                                       : 2\r\nFormat                                   : AAC\r\nFormat/Info                              : Advanced Audio Codec\r\nFormat profile                           : LC\r\nCodec ID                                 : 40\r\nDuration                                 : 1h 29mn\r\nBit rate mode                            : Constant\r\nBit rate                                 : 128 Kbps\r\nChannel(s)                               : 2 channels\r\nChannel positions                        : Front: L R\r\nSampling rate                            : 44.1 KHz\r\nFrame rate                               : 43.066 fps (1024 spf)\r\nCompression mode                         : Lossy\r\nStream size                              : 82.2 MiB (10%)\r\nDefault                                  : Yes\r\nAlternate group                          : 1","torrent":{"xt":"urn:btih:18f8613767106a80e61313fa6450b5cd14b2709d","amp;dn":"Dracula+Dead+and+Loving+It%281995%29MPEG-4%5BDaScubaDude%5D","amp;tr":["udp%3A%2F%2Ftracker.leechers-paradise.org%3A6969","udp%3A%2F%2Fzer0day.ch%3A1337","udp%3A%2F%2Fopen.demonii.com%3A1337","udp%3A%2F%2Ftracker.coppersurfer.tk%3A6969","udp%3A%2F%2Fexodus.desync.com%3A6969"],"infoHash":"18f8613767106a80e61313fa6450b5cd14b2709d","infoHashBuffer":{"type":"Buffer","data":[24,248,97,55,103,16,106,128,230,19,19,250,100,80,181,205,20,178,112,157]},"announce":[],"urlList":[]}}